<svg width="113" height="130" viewBox="0 0 113 130" fill="none" xmlns="http://www.w3.org/2000/svg">
<path opacity="0.5" d="M106.043 1.01853C105.66 0.283959 104.754 -0.00102807 104.02 0.38199C103.285 0.765008 103 1.67099 103.383 2.40556L106.043 1.01853ZM71.8983 67.8421L71.6001 66.372L71.8983 67.8421ZM1.06817 116.785C0.421738 117.303 0.31768 118.247 0.835758 118.894L9.27836 129.428C9.79645 130.074 10.7405 130.178 11.3869 129.66C12.0334 129.142 12.1374 128.198 11.6193 127.552L4.1148 118.188L13.4787 110.683C14.1251 110.165 14.2291 109.221 13.7111 108.575C13.193 107.928 12.249 107.824 11.6025 108.342L1.06817 116.785ZM103.383 2.40556C107.959 11.1814 111.779 24.8563 108.614 37.4303C107.041 43.6822 103.738 49.6828 97.8994 54.7289C92.0494 59.7843 83.5833 63.9412 71.6001 66.372L72.1965 69.3121C84.5569 66.8048 93.533 62.4673 99.861 56.9987C106.2 51.5207 109.811 44.9677 111.524 38.1626C114.932 24.6227 110.815 10.1708 106.043 1.01853L103.383 2.40556ZM71.6001 66.372C56.644 69.406 46.1616 67.2532 39.3895 62.8613C32.6256 58.4747 29.3769 51.7403 29.0584 45.1774C28.7383 38.5809 31.3757 32.2669 36.2591 28.6632C41.0775 25.1076 48.382 23.9782 57.8836 28.3259L59.1318 25.5979C48.8725 20.9035 40.3631 21.9064 34.4778 26.2493C28.6575 30.5444 25.7015 37.8954 26.0619 45.3228C26.4239 52.7836 30.1295 60.4316 37.7571 65.3783C45.3766 70.3197 56.7231 72.451 72.1965 69.3121L71.6001 66.372ZM57.8836 28.3259C67.2569 32.6148 72.5381 40.566 74.2019 50.0949C75.8732 59.6668 73.8823 70.8346 68.6098 81.3072C58.077 102.228 34.6272 120.042 2.17058 116.465L1.8419 119.446C35.7106 123.18 60.2725 104.539 71.2894 82.6563C76.7918 71.7271 78.9604 59.906 77.1572 49.5789C75.3465 39.2089 69.5194 30.351 59.1318 25.5979L57.8836 28.3259Z" fill="#D26D60"/>
</svg>
